<svg width="16" height="16" viewBox="0 0 16 16" fill="none" xmlns="http://www.w3.org/2000/svg">
<path d="M15.844 6.43303H15.1996V6.39983H7.99979V9.59975H12.5209C11.8613 11.4625 10.0889 12.7997 7.99979 12.7997C5.34906 12.7997 3.19992 10.6505 3.19992 7.99979C3.19992 5.34906 5.34906 3.19992 7.99979 3.19992C9.22336 3.19992 10.3365 3.6615 11.1841 4.41548L13.4468 2.15274C12.0181 0.821178 10.1069 0 7.99979 0C3.58191 0 0 3.58191 0 7.99979C0 12.4177 3.58191 15.9996 7.99979 15.9996C12.4177 15.9996 15.9996 12.4177 15.9996 7.99979C15.9996 7.4634 15.9444 6.93982 15.844 6.43303Z" fill="#FFC107"/>
<path d="M0.921847 4.27629L3.55018 6.20384C4.26136 4.44308 5.98371 3.19992 7.99926 3.19992C9.22283 3.19992 10.336 3.6615 11.1836 4.41548L13.4463 2.15274C12.0176 0.821178 10.1064 0 7.99926 0C4.92654 0 2.26181 1.73475 0.921847 4.27629Z" fill="#FF3D00"/>
<path d="M7.99984 16C10.0662 16 11.9437 15.2092 13.3633 13.9233L10.8874 11.8281C10.0842 12.4365 9.08581 12.8001 7.99984 12.8001C5.91909 12.8001 4.15234 11.4733 3.48676 9.62178L0.878025 11.6317C2.20199 14.2225 4.89072 16 7.99984 16Z" fill="#4CAF50"/>
<path d="M15.8439 6.43291H15.1996V6.39971H7.99976V9.59962H12.5208C12.204 10.4944 11.6285 11.266 10.8861 11.828C10.8865 11.8276 10.8869 11.8276 10.8873 11.8272L13.3632 13.9223C13.188 14.0815 15.9995 11.9996 15.9995 7.99967C15.9995 7.46328 15.9443 6.93969 15.8439 6.43291Z" fill="#1976D2"/>
</svg>
