<svg width="20" height="20" viewBox="0 0 20 20" fill="none" xmlns="http://www.w3.org/2000/svg">
<path d="M7.18749 18.8065C7.49815 18.8065 7.74999 18.5574 7.74999 18.25C7.74999 17.9427 7.49815 17.6936 7.18749 17.6936C6.87683 17.6936 6.62499 17.9427 6.62499 18.25C6.62499 18.5574 6.87683 18.8065 7.18749 18.8065Z" fill="#9098B1" stroke="#9098B1" stroke-width="2" stroke-miterlimit="10" stroke-linecap="round" stroke-linejoin="round"/>
<path d="M15.0625 18.8065C15.3731 18.8065 15.625 18.5574 15.625 18.25C15.625 17.9427 15.3731 17.6936 15.0625 17.6936C14.7518 17.6936 14.5 17.9427 14.5 18.25C14.5 18.5574 14.7518 18.8065 15.0625 18.8065Z" fill="#9098B1" stroke="#9098B1" stroke-width="2" stroke-miterlimit="10" stroke-linecap="round" stroke-linejoin="round"/>
<path d="M0.999999 0.999999H3.25L5.5 14.3548H16.75L19 4.3387H4.375" stroke="#9098B1" stroke-width="2" stroke-linecap="round" stroke-linejoin="round"/>
</svg>
