<svg width="20" height="20" viewBox="0 0 20 20" fill="none" xmlns="http://www.w3.org/2000/svg">
<path fill-rule="evenodd" clip-rule="evenodd" d="M10 2C8.3971 2 7.09766 3.29944 7.09766 4.90238C7.09766 6.50532 8.3971 7.80476 10 7.80476C11.603 7.80476 12.9024 6.50532 12.9024 4.90238C12.9024 3.29944 11.603 2 10 2ZM5.09766 4.90238C5.09766 2.19487 7.29253 0 10 0C12.7075 0 14.9024 2.19487 14.9024 4.90238C14.9024 7.60989 12.7075 9.80476 10 9.80476C7.29253 9.80476 5.09766 7.60989 5.09766 4.90238Z" fill="#9098B1"/>
<path fill-rule="evenodd" clip-rule="evenodd" d="M7.51784 13.3896C4.47035 13.3896 2 15.86 2 18.9075V18.9986C2 19.5509 1.55228 19.9986 1 19.9986C0.447715 19.9986 0 19.5509 0 18.9986V18.9075C0 14.7554 3.36578 11.3896 7.51784 11.3896H12.4822C16.6342 11.3896 20 14.7554 20 18.9075V18.9986C20 19.5509 19.5523 19.9986 19 19.9986C18.4477 19.9986 18 19.5509 18 18.9986V18.9075C18 15.86 15.5296 13.3896 12.4822 13.3896H7.51784Z" fill="#9098B1"/>
</svg>
