<svg width="18" height="20" viewBox="0 0 18 20" fill="none" xmlns="http://www.w3.org/2000/svg">
<path fill-rule="evenodd" clip-rule="evenodd" d="M8.87501 2C5.54379 2 2.84376 4.70004 2.84376 8.03125V13.2816C2.84376 13.3971 2.82375 13.5117 2.78463 13.6204L2.42291 14.625H15.3271L14.9654 13.6204C14.9263 13.5117 14.9063 13.3971 14.9063 13.2816V8.03125C14.9063 4.70004 12.2062 2 8.87501 2ZM0.843756 8.03125C0.843756 3.59547 4.43922 0 8.87501 0C13.3108 0 16.9063 3.59547 16.9063 8.03125V13.1071L17.6909 15.2862C17.8012 15.5926 17.7554 15.9336 17.5682 16.2C17.3809 16.4664 17.0757 16.625 16.75 16.625H1.00001C0.674353 16.625 0.369096 16.4664 0.181848 16.2C-0.00540075 15.9336 -0.0511846 15.5926 0.0591362 15.2862L0.843756 13.1071V8.03125Z" fill="#9098B1"/>
<path fill-rule="evenodd" clip-rule="evenodd" d="M5.50001 14.625C6.05229 14.625 6.50001 15.0727 6.50001 15.625C6.50001 16.9368 7.56317 18 8.87501 18C10.1868 18 11.25 16.9368 11.25 15.625C11.25 15.0727 11.6977 14.625 12.25 14.625C12.8023 14.625 13.25 15.0727 13.25 15.625C13.25 18.0414 11.2914 20 8.87501 20C6.4586 20 4.50001 18.0414 4.50001 15.625C4.50001 15.0727 4.94772 14.625 5.50001 14.625Z" fill="#9098B1"/>
</svg>
