<svg width="20" height="20" viewBox="0 0 20 20" fill="none" xmlns="http://www.w3.org/2000/svg">
<path d="M6.62498 1.00006C6.62498 1.00006 7.74998 3.25005 9.99997 3.25005C12.25 3.25005 13.375 1.00006 13.375 1.00006L18.9999 2.12505L17.8749 6.62504H15.625C15.625 6.62504 16.7499 8.87503 16.7499 10C16.7499 10.9889 15.8331 12.7315 15.625 14.5C15.2976 17.2844 15.625 19 15.625 19H4.37499C4.37499 19 4.69786 17.2349 4.37499 14.5C4.15561 12.6438 3.24999 10.9102 3.24999 10C3.24999 8.87503 4.37499 6.62504 4.37499 6.62504H2.12499L0.999997 2.12505L6.62498 1.00006Z" stroke="#40BFFF" stroke-width="2" stroke-linecap="round" stroke-linejoin="round"/>
</svg>
